<svg xmlns="http://www.w3.org/2000/svg" width="864" height="864"><path d="M811.823 255.594c-11.791-6.808-24.82-9.66-37.542-9.01.945-5.978 1.442-11.847 1.442-17.507 0-47.543-38.887-86.43-86.43-86.43-29.498 0-55.655 14.978-71.269 37.699a87.173 87.173 0 00-2.919-2.117c-13.53-9.358-28.288-15.56-43.022-19.715a24.56 24.56 0 00-.486-.132c-6.87-1.775-10.517-2.822-18.308-4.342a236.213 236.213 0 00-39.14-4.283l-.293-.014c-2.777-.037-5.947-.136-9.512-.121l.028-.002c-16.532.066-32.824 1.36-48.779 3.358-.189.024-.377.05-.566.078-8.018 1.207-11.257 1.615-19.755 3.254-13.69 2.642-27.278 6.05-40.656 10.295l-.028.015c-19.273 6.144-38.263 12.878-57.03 19.995l-.134.051c-19.11 7.382-37.913 14.904-56.635 21.99l-.131.05c-.019.014-.036.014-.053.022-.886-8.632-1.9-17.772-4.041-27.512a21.67 21.67 0 00-.111-.478c-2.284-9.425-8.647-18.315-16.89-23.015-8.242-4.7-17.428-5.518-25.631-3.53-7.372 1.786-14.306 6.085-19.414 12.68-.852-1.04-1.625-2.164-2.59-3.075-6.904-6.508-15.64-9.466-24.08-9.466-8.44 0-17.176 2.958-24.08 9.466-6.868 6.476-10.937 16.543-10.979 26.195-.128 7.568 1.195 13.465 2.043 17.707 0 .014.01.014.01.022 1.36 6.933 2.897 13.413 4.261 19.534 1.23 5.847 2.21 11.936 3.117 18.13-1.008.037-2.036.11-3.002.097a50.927 50.927 0 01-4.844-.371c-2.017-4.785-4.925-9.156-8.644-12.48-7.075-6.322-15.886-9.046-24.324-8.821-8.438.225-17.092 3.414-23.82 10.105s-10.548 16.933-10.29 26.628l.014.208c.317 8.86 3.163 16.8 7.134 23.384 1.251 2.074 2.08 3.159 2.246 3.406.193.289.393.573.6.852 5.43 7.386 12.225 12.987 19.36 17.101 2.053 1.183 3.413 1.818 3.97 2.111.402.212.81.411 1.225.598 9.537 4.326 19.388 6.431 28.875 7.131 2.797.207 4.856.21 6.157.265.129.006.257.01.386.014.695.015 1.357-.036 2.047-.029-2.07 6.759-4.429 13.208-7.394 18.942-.323.623-1.094 1.948-1.963 3.486-.063.1-.132.19-.194.29-3.253-5.635-7.076-10.582-11.148-14.87a22.64 22.64 0 00-.85-.847c-.59-.561-1.848-1.897-3.995-3.76-8.573-7.436-18.54-12.51-28.836-15.472a23.04 23.04 0 00-1.572-.393c-3.468-.737-8.446-1.876-14.5-1.903-11.24-.057-21.103 3.238-29.219 7.3-.41.205-.814.422-1.21.652-.802.463-2.64 1.378-5.304 3.095-10.82 6.977-19.603 16.46-25.848 27.397-.254.446-.492.9-.716 1.36-1.795 3.703-3.968 7.868-5.776 13.986-3.358 11.36-3.63 23.332-1.08 34.649.165.73.366 1.454.602 2.166 1.398 4.224 3.166 9.799 6.898 15.817 6.427 10.367 15.065 17.28 23.077 22.328.316.2.637.39.962.574 3.764 2.122 6.828 3.955 12.133 6.191 6.494 2.738 13.234 4.645 20.064 5.885-1.05.995-2.599 2.366-4.597 4.402-6.357 6.482-12.946 14.69-17.099 25.542-.149.39-.288.784-.415 1.182-2.966 9.233-2.171 20.136 2.411 28.445.885 1.603 1.957 3.009 3.037 4.402-6.346.324-12.743 2.124-18.074 5.462l-.286.182a50.687 50.687 0 00-16.562 17.546c-1.327 2.341-1.905 3.742-2.048 4.028-.221.44-.427.887-.62 1.34-4.468 10.574-5.167 20.131-5.79 27.342l-.022.306c-.83 11.394.293 21.865 1.664 31.29.03.209.063.418.1.626 1.26 7.251 3.104 14.583 5.735 21.835 1.63 4.494 2.821 7.009 4.376 10.489.084.188.17.376.26.562 5.327 11.105 11.895 20.333 17.97 28.546l.271.36c3.835 4.977 8.127 10.654 13.553 16.414 3.304 3.507 5.356 5.33 8.214 7.985.12.113.243.224.366.333 11.239 9.995 23.453 16.146 34.36 21.173l.288.129c13.02 5.784 25.951 9.15 38.056 11.889.104.025.207.049.311.072 13.64 2.889 27.143 4.667 40.35 5.98l.209.015c15.359 1.386 30.17 1.119 44.3.585h.055c15.265-.616 30.313-2.022 45.142-3.862 14.844-1.803 29.419-4.24 43.764-6.952l.228-.044c14.761-2.946 28.887-6.643 42.568-10.187 13.142-3.337 26.729-6.416 40.602-9.89l.22-.058c14.554-3.798 28.588-8.023 42.307-11.95l.096-.021c15.364-4.468 30.252-9.06 44.902-12.97h.016c8.03-2.125 16.468-3.822 25.23-5.38 4.022-.358 7.188-1.136 10.166-1.768l-.985.186c4.47-.746 8.877-2.29 12.81-4.572.91-.465 1.743-.91 3.467-1.803a23.1 23.1 0 00.442-.236c8.51-4.649 15.446-13.099 17.85-22.278s.81-18.263-3.235-25.67c-3.461-6.337-9.029-11.687-16.182-14.982 3.907-.28 7.824-1.136 11.552-2.746v.014c8.601 7 21.255 11.412 33.826 9.428 5.61-.885 10.597-3.316 14.41-5.562.405.555.675 1.063 1.152 1.684.276.357.562.707.86 1.048 2.455 2.825 5.504 5.158 8.757 7.156-3.318 7.472-5.66 15.795-5.752 25.112-.05 4.953.546 7.734.598 8.375.126 1.54.408 3.062.84 4.544.16.551.584 3.434 2.511 8.21 5.36 13.284 15.582 23.23 28.005 28.77 4.272 1.905 6.897 2.465 7.478 2.664a22.93 22.93 0 003.688.934c.86.143 3.25.765 7.245 1.154 12.082 1.177 23.61-.957 33.961-5.092 3.622-1.447 5.917-2.72 7.113-3.277.96-.448 1.886-.96 2.774-1.536 4.497-2.913 8.839-5.597 14.146-10.77 7.385-7.2 12.741-15.252 16.894-23.233 5.626 2.398 11.75 3.63 17.583 2.984 9.43-1.047 17.34-5.788 22.806-12.22 5.466-6.432 8.868-15.004 8.379-24.48-.49-9.475-5.566-19.157-12.957-25.437a16.227 16.227 0 00-.08-.065l-2.572-2.166c-.285-.24-.576-.474-.872-.7-5.058-3.854-10.599-7.557-16.607-10.877-.058-12.554-.838-24.758-1.836-36.48a21.02 21.02 0 00-.036-.335c-1.052-10.514-2.481-21.126-4.412-31.78-.066-2.04-.13-4.03-.27-6.096-.03-.443-.073-.885-.13-1.326-.503-3.975-1.123-9.699-3.802-16.51.603 1.533.525-2.3-4.953-8.523-3.123-3.546-5.528-5.524-6.564-6.544a22.894 22.894 0 00-13.193-6.39c.435-.59.907-1.158 1.458-1.674 3.856-3.61 9.697-3.255 13.611-7.042 4.975-4.815 4.914-12.067 1.317-17.676-1.345-2.096-3.807-3.705-4.832-5.95-.623-1.363-.02-2.885-.48-4.115 2.524.81 4.936.729 6.918.083.075.004.155.014.229.017a13.201 13.201 0 0010.076 4.34c7.29-.158 13.07-6.196 12.91-13.485 13.737-.48 27.382-6.052 39.648-13.302 17.803-10.525 33.342-25.05 42.263-40.502 18.825-32.608 7.549-74.69-25.058-93.515zm-382.592 354.97c-13.78 3.944-27.156 7.958-40.3 11.402-13.21 3.309-26.866 6.394-40.808 9.942l-.094.022c-13.224 3.426-26.013 6.755-38.52 9.27-13.148 2.487-26.182 4.656-39.126 6.227l-.076.014c-13.194 1.646-26.281 2.853-39.265 3.382h-.012c-12.31.473-24.024.63-35.048-.337-11.077-1.093-21.82-2.544-32.14-4.695-9.262-2.09-17.504-4.325-24.516-7.384-7.198-3.295-12.823-6.352-16.583-9.543-.935-.857-1.435-1.367-1.995-1.893 5.183 1.742 10.579 3.09 16.2 3.852.426.058.854.103 1.282.137 6.325.497 11.755 1.12 20.284.177 14.909-1.648 28.428-7.132 40.065-14.505.34-.216.672-.44 1-.672 1.582-1.123 4.08-2.71 7.206-5.142 4.067-3.165 7.777-6.671 11.32-10.318 3.396 5.771 8.164 10.551 13.724 13.36 13.476 6.805 34.014 2.316 44.28-11.376 1.645.255 3.218.407 4.538.363 4.17-.139 6.738-.981 8.74-1.649 8.011-2.669 10.648-4.73 18.062-7.089l.128-.036 5.436-2.596s2.885-2.157 3.943-3.247a22.15 22.15 0 004.069-5.742c1.578-3.166 1.842-4.979 2.076-6.321.365-2.102.284-2.746.262-3.492l.001-.008c1.363 6.285 11 21.646 9.391 19.947 5.794 7.01 14.32 12.767 24.009 14.952 5.372 1.212 11.027.927 13.01.851a22.957 22.957 0 002.287-.201c12.753-1.775 22.006-8.4 28.262-13.612 1.262.892 2.529 1.673 3.755 2.163 13.19 5.27 16.248 2.56 26.697 3.022 1.392.058 2.857-.125 4.333-.416 1.055 2.817 2.153 5.633 3.438 8.478-3.068.907-6.273 1.826-9.315 2.713zm202.95-151.997c-3.298-2.195-6.966-4.071-10.872-5.171-.707-.434-1.371-.887-2.125-1.296h-.014c-2.764-1.5-4.297-2.026-4.35-2.05a22.886 22.886 0 00-2.04-.82 46.81 46.81 0 00-15.782-2.593 46.493 46.493 0 00-15.854 2.993c-3.668 1.384-6.515 3.003-8.865 4.425 0-6.014-.037-11.747.131-17.136.314-6.086-1.117-12.329-3.712-17.897 2.674-.886 5.325-1.94 7.924-3.233 4.261-2.12 6.532-3.87 7.305-4.34 1-.607 1.952-1.29 2.847-2.042 4.072-3.42 8.071-6.665 12.67-12.455 2.392-3.013 4.45-6.082 6.295-9.158a101.51 101.51 0 005.46 11.185c4.887 8.586 11.134 16.77 19.255 22.161-1.722 3.45-1.578 7.852.658 11.026 1.812 2.57 4.844 4.122 7.964 4.374a33.967 33.967 0 00-1.511 8.047c-.27 3.984 1.352 6.924 2.744 9.807a35.656 35.656 0 00-8.128 4.173zm76.169-27.922c-3.57 2.132-6.57 5.148-8.911 8.56a28.9 28.9 0 00-5.029 14.814c-4.163 2.207-9.486 5.076-15.308 9.58-.25.192-.44.47-.68.678-.1-.114-.164-.262-.266-.373-5.782-6.45-13.333-10.071-21.004-11.193-1.765-4.622-4.748-10.968.334-14.498a14.144 14.144 0 002.312-1.983c3.418-.27 6.732-2.139 8.483-5.111 1.755-2.979 1.768-6.794.347-9.926 8.296-5.441 14.658-13.77 19.605-22.545 5.852-10.381 9.878-21.863 11.328-32.693.61-.318 1.17-.649 1.687-.979a16.025 16.025 0 006.464.854c1.225 4.377 2.801 8.607 4.885 12.556a13.201 13.201 0 00-7.087 9.124c-1.138 5.4 1.206 10.72 5.505 13.64-.47.768-.936 1.633-1.405 2.637-2.119 4.53-2.35 10.122-1.219 14.963.647 2.768 2.179 7.034 4.445 9.788-1.548.584-3.073 1.263-4.486 2.107z"/><g fill="#FFF"><path d="M106.276 488.026c2.445-4.507 6.144-8.047 9.856-11.507 6.18-5.13 13.186-9.29 20.6-12.39-1.324 2.132-2.055 4.86-1.827 8.176.478 9.469.963 18.938 1.326 28.412.637 16.135.923 32.28 1.078 48.425.09 8.78-.098 17.561-.543 26.33-.069 1.264-.15 2.526-.232 3.788a15.93 15.93 0 00.115 3.301 47.914 47.914 0 01-8.067-3.362c-1.267-.67-2.467-1.463-3.7-2.194-14.877-8.567-26.993 12.471-12.116 21.039 1.91 1.08 3.77 2.256 5.732 3.24 6.793 3.402 13.993 5.79 21.536 6.811 7.04.554 8.879 1.03 15.967.246 10.89-1.204 21.096-5.247 30.309-11.084 2.13-1.512 4.33-2.932 6.393-4.538 9.462-7.364 17.286-16.625 23.223-27.018.945-1.89 1.973-3.74 2.834-5.67 3.954-8.865 5.88-18.474 4.538-28.15-1.06-4.745-1.07-6.063-3.18-10.465-3.12-6.507-8.154-11.604-14.419-15.112-4.48-1.965-5.118-2.516-9.944-3.54-.022-.005-.045-.008-.067-.012 2.972-3.83 5.753-7.805 8.265-11.96 2.44-4.642 3.825-6.743 5.37-11.741 1.897-6.128 2.436-12.468.708-18.717-.554-2.004-1.517-3.872-2.276-5.809-3.032-4.658-3.406-5.926-7.655-9.653-6.655-5.838-15.075-8.802-23.664-10.317-2.34-.247-4.671-.608-7.021-.739-11.945-.658-23.845 1.547-35.14 5.306-2.199.825-4.426 1.577-6.596 2.476-10.23 4.235-19.836 10.043-28.222 17.271-1.414 1.35-2.874 2.654-4.244 4.05-5.025 5.123-9.47 10.93-12.051 17.678v.004c-5.251 16.344 17.864 23.77 23.114 7.425zm93.205 48.57c.335 4.989-1.113 9.884-3.238 14.358-.602 1.269-1.302 2.49-1.953 3.734-4.468 7.501-10.256 14.195-17.235 19.47-1.509 1.142-3.117 2.145-4.676 3.218-3.74 2.289-7.707 4.148-11.865 5.396.11-.6.198-1.22.243-1.876.092-1.399.187-2.798.257-4.198.467-9.255.669-18.522.572-27.79-.043-4.454-.098-8.91-.165-13.365 3.117-2.127 6.103-4.443 9.003-6.865 3.01-.98 6.131-1.652 9.274-2.193 4.636-.49 9.789-1.015 14.19.956.53.237 1.012.568 1.517.853 2.833 2.207 3.645 4.863 4.076 8.303zm-30.334-78.5c1.519.108 3.02.39 4.531.584 4.578 1.08 10.1 2.501 12.652 6.912.264.456.414.969.622 1.453.345 2.026-.322 3.901-1.087 5.755-1.392 3.374-1.354 3.044-3.28 6.47-5.956 9.649-13.75 17.899-21.916 25.686-.06-1.724-.11-3.447-.178-5.17-.374-9.72-.865-19.434-1.365-29.147-.407-5.91-3.56-9.581-7.465-11.152 5.74-1.22 11.607-1.804 17.486-1.39zm60.869 31.112c1.662 8.003 2.933 16.06 3.995 24.162 1.51 13.254 2.104 26.594 2.496 39.922.115 7.877.533 15.788 0 23.66a7.929 7.929 0 01-.084.987c-5.525 13.637 13.547 24.141 21.94 10.22.573-1.461 1.213-2.897 1.718-4.383.536-1.578.32-3.71.658-5.313.511-8.619.247-17.263.04-25.888-.421-14.146-1.06-28.303-2.694-42.368-1.122-8.516-2.45-16.987-4.19-25.4h-.003c-3.111-16.882-26.987-12.482-23.876 4.4zM268 522.81c1.694 11.383 3.347 22.773 5.339 34.108.553 4.954 1.26 9.889 2.277 14.775.143.652.288 1.304.43 1.956.065.298.112.603.17.903a.375.375 0 01.016-.118c.024.134.043.268.068.401.013.075.03.13.043.203.022.07.029.146.056.215.029.077.013.046-.019-.036 1.754 9.304 5.628 2.918 24.123-2.967.065-.02-.17-1.203-.446-2.493-.955-5.115-1.48-10.309-2.529-15.41-.056-.313-.105-.627-.16-.94a224.117 224.117 0 01-.669-7.23c-.64-8.19.087-16.345 1.45-24.417 1.194-6.185 3.023-12.303 6.254-17.752.49-.825 1.063-1.597 1.595-2.396 2.039-2.704 4.589-4.801 7.77-5.927 12.16 10.79 28.367-6.065 16.368-17.898-1.752-1.608-3.572-3.12-5.794-4.054-1.968-.808-2.799-1.232-5.009-1.723-4.73-1.053-9.543-.627-14.109.936-1.135.473-2.296.887-3.405 1.418-5.99 2.866-10.968 7.257-14.999 12.467-.04-.266-.083-.53-.122-.797-.383-2.823-.61-4.352-.912-7.111l-.026-.243c.335-1.292.504-2.72.462-4.29-.047-1.756-.059-3.539-.447-5.262-.166-.736.169-2.172-.586-2.188-7.815-.26-15.61.926-23.415 1.388-1.3 6.954-.068 14.038.866 20.96 1.622 11.2 3.622 22.34 5.36 33.521zm-22.247-68.586c.16-1.731.337-3.462.553-5.187.34-2.597.682-5.214 1.3-7.758 7.69-15.348-14.015-26.224-21.706-10.876-2.253 4.851-2.966 10.205-3.664 15.456a174.36 174.36 0 00-.656 6.1c-1.6 17.093 22.571 19.358 24.173 2.265zm303.818 43.869c-.286-14.485-.279-28.97-.216-43.457-.004-6.217-.039-12.436.153-18.65 1.44-17.107-22.752-19.144-24.192-2.037-.303 6.897-.24 13.803-.24 20.705-.024 4.963-.017 9.925-.016 14.887-3.906-1.462-8.09-1.785-12.3-.734-3.586.896-4.744 1.817-7.872 3.585-5.874 4.12-10.653 9.596-14.338 15.735-.84 1.4-1.572 2.865-2.357 4.297-3.959 7.916-6.376 16.481-7.266 25.283-.184 1.796-.239 3.604-.353 5.407-.254 8.202.52 16.514 3.033 24.36.464 1.448 1.053 2.85 1.58 4.276.655 1.327 1.224 2.7 1.965 3.982 3.296 5.695 8.57 10.696 15.413 11.492 2.021.235 4.065-.187 6.098-.28 1.824-.737 3.745-1.267 5.472-2.21 1.428-.78 2.69-1.845 3.917-2.915 4.364-3.808 7.197-8.915 9.995-13.885l.133 1.465c.079.82.428 2.984.338 3.91.659 17.155 24.919 16.223 24.26-.932-.273-5.262-1.022-10.493-1.384-15.75-.927-12.826-1.564-25.676-1.823-38.534zm-33.648 15.817c-2.43 7.572-5.209 15.044-9 22.057-.2.361-.527.952-.894 1.61-1.016-4.254-1.313-8.678-1.22-13.034.063-1.219.076-2.44.185-3.655.519-5.89 1.996-11.637 4.58-16.965 1.777-3.415 3.831-6.667 6.531-9.407.888 1.834 2.11 3.277 3.537 4.34-.836 5.104-2.105 10.125-3.719 15.054zm238.319 79.758l-2.574-2.167c-7.944-6.054-16.514-11.273-25.976-14.565.088-1.221.176-2.443.237-3.665.063-2.5.15-5 .188-7.502.107-12.663-.769-25.315-1.842-37.923-1.052-10.522-2.47-21.001-4.405-31.398.022-2.641-.123-3.957-.343-7.204-.472-3.723-1.011-7.485-2.394-11-.236-.602-.394-1.272-.822-1.758-1.682-1.91-3.628-3.572-5.441-5.358-5.91 3.531-12.282 6.382-17.727 10.593-.794.615.055 2.01.141 3.011.088.993.656 4.462.797 5.335.691 4.266.468 2.902 1.324 7.544.045.226.08.453.125.68a77.006 77.006 0 01-2.338 15.855c-.954 3.106-1.53 5.298-2.804 8.261-2.068 4.807-4.959 9.177-8.73 12.817-2.006 1.8-2.506 2.401-4.666 3.813-.586.382-1.22.683-1.827 1.032-.874.502-1.262.554-1.022 1.524-.138.063-.268.23-.413.19-.978-.27-1.843-1.495-2.31-2.187-1.913-2.835-2.92-6.142-3.886-9.385-.33-1.361-.701-2.713-.992-4.084-1.487-7.059-2.043-14.283-2.471-21.468-.173-5.168-.433-10.363 0-15.524l-.013.002c1.441-17.107-22.752-19.144-24.192-2.037-.537 6.118-.274 12.273-.063 18.4.47 8.337 1.151 16.707 2.836 24.9.375 1.821.847 3.62 1.271 5.43 2.527 8.765 5.977 18.034 13.431 23.872 1.625 1.272 3.511 2.171 5.267 3.257 2.107.618 4.15 1.531 6.323 1.855 6.35.948 12.758-.83 18.334-3.78 4.662-2.469 6.056-3.965 10.104-7.304a62.635 62.635 0 004.09-4.167c.272 5.461.437 10.927.384 16.395-.019 2.192-.114 4.383-.177 6.575-6.796-.176-13.6.462-20.287 1.77-6.416 1.567-8.395 1.814-14.539 4.257-9.337 3.712-17.115 8.89-23.669 16.549-1.363 1.829-2.835 3.58-4.088 5.487-4.688 7.13-8.037 15.603-8.12 24.23-.02 2.1.35 4.183.523 6.275.587 2.015.977 4.098 1.762 6.045 2.951 7.318 8.907 13.208 16.076 16.405 1.8.803 3.728 1.281 5.591 1.922 1.901.316 3.785.764 5.702.95 7.832.763 15.949-.654 23.229-3.563 2.024-.81 3.952-1.843 5.927-2.764 5.137-3.327 6.208-3.659 10.604-7.944 6.84-6.668 11.721-14.951 15.551-23.63.947-2.394 1.979-4.755 2.84-7.18a116.648 116.648 0 003.004-9.888c5.416 2.42 10.422 5.669 15.114 9.306l1.635 1.409c13.082 11.116 28.803-7.385 15.72-18.5zm-60.851 15.836c-3.216 6.939-7.17 13.939-13.625 18.372-.89.61-1.875 1.07-2.812 1.604-4.79 2.092-10.05 3.476-15.31 2.687-.75-.112-1.47-.367-2.206-.548-2.18-.94-3.961-2.611-4.338-5.056-.078-.417-.039-.843-.039-1.264.336-4.505 2.38-8.749 4.956-12.405.744-1.057 1.62-2.016 2.43-3.023 2.471-2.408 3.183-3.34 6.128-5.23 3.961-2.544 8.607-4.27 13.12-5.51 1.746-.48 3.53-.805 5.295-1.207a69.604 69.604 0 0110.925-1.157 91.906 91.906 0 01-2.27 7.183c-.682 1.877-1.502 3.702-2.254 5.553z"/><path d="M522.157 609.965c-2.022 1.273-1.044.746-3.2 1.707-1.834.309-3.667.627-5.5.945-3.387.008-6.735-.751-9.94-1.794-1.996-.75-3.614-1.286-5.503-2.259-3.546-1.825-6.561-4.44-9.06-7.534-1.835-2.557-2.455-3.296-4.053-6.027-2.681-4.58-4.764-9.49-6.515-14.49-2.694-7.828-4.602-15.88-5.018-24.181-.625-9.593-1.045-19.208-.786-28.822.212-8.53.632-17.064.365-25.596-.29-5.334-.599-10.943-3.444-15.666-2.377-3.944-3.523-4.03-7.396-6.55-1.816-.382-3.6-.98-5.448-1.146-1.17-.107-2.353.12-3.51.33-4.197.758-7.827 3.166-10.97 5.927-.808.781-1.646 1.532-2.422 2.343-3.724 3.892-6.781 8.34-9.525 12.965-.073-1.351-.144-2.703-.218-4.054-.732-14.3-1.275-28.638-.27-42.941.511-7.511.966-15.062 2.37-22.471h-.005c4.025-16.689-19.576-22.38-23.602-5.692-1.82 8.719-2.38 17.639-2.989 26.505-1.005 14.206-.597 28.444.09 42.651-2.836-1.904-6.659-2.63-11.17-1.192-4.628 1.475-2.156.696-7.419 2.328a3034.482 3034.482 0 01-18.59 5.7c.778-10.88 1.476-21.777 3.023-32.582.991-6.714 1.966-13.49 4.048-19.971h.033c6.408-15.927-16.115-24.99-22.523-9.063-2.953 8.205-4.26 16.883-5.54 25.473-1.72 11.89-2.46 23.886-3.328 35.86a526.88 526.88 0 00-.457 7.864c-3.526 1.167-7.017 2.432-10.422 3.925-15.702 6.925-5.919 29.123 9.778 22.221.001.302-.006.603-.004.905.063 8.256.66 16.491 1.59 24.692.677 4.967 1.332 10.08 3.736 14.568.512.957 1.159 1.837 1.738 2.756 2.999 3.836 6.925 6.513 11.711 7.591 2.937.663 4.096.421 7.088.307 6.97-.97 12.303-4.699 17.52-9.123 2.06-1.805 4.056-3.681 6.067-5.54 12.604-11.656-3.88-29.48-16.484-17.825-1.778 1.645-3.545 3.303-5.358 4.91-.558.482-1.113.95-1.677 1.406l-.252-1.795c-.839-7.334-1.371-14.7-1.434-22.086-.018-2.93 0-5.859.045-8.787 8.972-2.721 17.945-5.44 26.898-8.222 5.307-1.646 2.781-.851 7.583-2.38 1.936-.617 3.529-1.492 4.824-2.534.496 9.27.997 18.54 1.559 27.806.539 8.348.751 16.711 1.225 25.062.682 11.203.319 9.51 22.376 10.484 1.475.066 1.335-2.633 2.002-3.95 1.12-4.49 1.663-9.104 2.482-13.659 1.189-7.778 2.738-15.481 4.742-23.09 1.7-6.702 4.46-13.003 7.577-19.14-.092 3.291-.202 6.583-.284 9.873-.28 10.34.165 20.68.83 30.996.587 8.698 2.084 17.326 4.658 25.661.493 1.597 1.065 3.17 1.598 4.754 2.192 6.275 4.815 12.424 8.128 18.196 2.278 3.97 3.001 4.822 5.616 8.548a57.7 57.7 0 005.506 6.182c-13.04 3.624-25.995 7.549-38.99 11.339-13.658 3.908-27.266 8-41.01 11.599-13.599 3.408-27.275 6.497-40.861 9.955-13.222 3.425-26.446 6.882-39.84 9.573-13.532 2.562-27.12 4.83-40.795 6.49-13.678 1.705-27.406 2.978-41.184 3.54-12.68.487-25.403.704-38.059-.41-11.711-1.152-23.386-2.705-34.912-5.117-9.89-2.226-19.715-4.776-29.03-8.864-7.894-3.604-15.732-7.533-22.355-13.236-2.175-2.002-3.52-3.17-5.547-5.303-3.847-4.047-7.22-8.511-10.636-12.917-4.806-6.478-9.501-13.093-13.099-20.338-1.11-2.447-1.935-4.142-2.858-6.648-1.65-4.48-2.87-9.123-3.72-13.818-1.024-6.868-1.758-13.813-1.31-20.765.323-4.034.692-8.117 1.814-12.02.267-.782.139-.495.514-1.226.063-.124.16-.234.195-.368.007-.031-.093-.043-.073-.07.122-.145.666-.573.865-.734l.002-.001c14.55-9.112 1.664-29.688-12.886-20.576a27.693 27.693 0 00-9.063 9.597c-.55.97-.998 1.992-1.497 2.988-2.727 6.454-3.469 13.472-4.065 20.386-.642 8.809.218 17.612 1.484 26.322 1.06 6.093 2.59 12.123 4.7 17.941 1.398 3.853 2.092 5.225 3.757 8.951 4.254 8.867 9.9 16.947 15.73 24.83 3.867 5.018 7.73 10.067 12.08 14.685 2.865 3.041 4.085 4.08 7.127 6.907 8.462 7.525 18.505 12.774 28.716 17.479 10.84 4.815 22.278 7.871 33.809 10.48 12.498 2.647 25.164 4.331 37.868 5.595 13.757 1.241 27.588 1.031 41.373.51 14.472-.583 28.89-1.925 43.257-3.708 14.184-1.722 28.277-4.073 42.312-6.727 13.925-2.78 27.672-6.366 41.413-9.925 13.526-3.435 27.137-6.517 40.674-9.908 14.008-3.655 27.873-7.825 41.79-11.808 15.14-4.402 30.206-9.053 45.44-13.12 9.292-2.458 18.717-4.322 28.177-5.987 3.168-.175 4.4-.591 8.34-1.427a.217.217 0 00.007-.003c2.143-.357 3.948-1.056 5.436-1.993.688-.337 1.628-.864 4.057-2.122 15.067-8.23 3.43-29.536-11.637-21.307zm-6.524-315.605c.51-5.23.971-6.84.263-12.1-.765-5.684-2.97-11.25-6.394-15.858-1.148-1.546-2.56-2.878-3.84-4.317-4.297-3.331-4.926-4.312-10.04-6.321-6.998-2.75-14.558-2.677-21.786-1.04-1.635.52-3.3.95-4.902 1.558a47.213 47.213 0 00-3.63 1.572c-4.646-11.17-23.113-9.392-23.222 5.577.485 8.817.806 17.63.85 26.46a38.384 38.384 0 00-.04 3.35h-.002c.004.082.018.156.024.237-.324 18.67-1.799 37.293-3.046 55.917-1.076 14.575-1.871 29.165-1.942 43.781.091 5.138.223 10.278.557 15.406 1.141 17.13 25.366 15.515 24.224-1.614-.311-4.554-.397-9.123-.503-13.685.056-14.11.858-28.194 1.886-42.266l.242-3.546c.62-.084 1.376-.185 2.366-.308 1.693-.484 3.42-.864 5.078-1.454 9.934-3.529 18.436-10.178 25.782-17.578 1.505-1.727 3.088-3.39 4.516-5.181 5.324-6.681 9.758-14.394 12.18-22.62.578-1.959.92-3.98 1.379-5.97zm-24.11-2.849c-1.56 6.302-4.888 12.063-9.004 17.05-.997 1.209-2.1 2.326-3.15 3.49-3.959 3.75-8.323 7.481-13.334 9.82.601-10.007 1.068-20.021 1.192-30.05-.001-.493-.01-.987-.012-1.48.22-2.297 1.084-4.06 2.486-6.142 3.031-3.507 6.78-5.052 11.156-6.235 2.831-.365 6.212-.43 8.406 1.745.29.288.515.638.77.957 2.484 3.646 2.183 6.685 1.49 10.845zm111.474-25.814c0-.123.082-.378-.04-.367l-.053.002c0-.602.021-1.202-.01-1.805-8.047.524-16.154.46-24.142 1.566v.012c-.006.106-.016.213-.02.32-.003-.11-.004-.219-.01-.328l-.04.005c-.46.064-.192.744-.03 1.325a59.028 59.028 0 01-.73 5.595c-2.081 10.106-4.647 20.126-8.162 29.837-3.302 8.362-6.693 16.333-13.346 22.636-.71.587-2.595 2.763-3.111 2.748-1.106-.041-1.556-1.208-2.1-2.607-1.535-3.955-2.19-8.172-2.69-12.361-.41-4.332-.663-6.353-.828-10.713-.263-6.998-.046-14.027.57-21 .626-5.677 1.177-11.458 3.112-16.872l-.027-.002c6.777-15.773-15.53-25.356-22.306-9.583-3.053 7.568-4.03 15.721-4.934 23.766a185.327 185.327 0 00-.716 24.056c.19 5.378.44 7.292.93 12.603 1.22 9.376 2.914 19.337 8.723 27.126 1.124 1.508 2.517 2.796 3.776 4.194 1.695 1.16 3.236 2.584 5.085 3.48 5.927 2.872 12.432 2.89 18.567.73 4.589-1.615 6.386-3.264 10.292-5.999a55.523 55.523 0 003.153-2.861 119.853 119.853 0 01-1.084 4.079c-.549 1.926-1.203 3.82-1.806 5.731-2.81 7.084-5.883 14.914-11.766 20.084-.773.679-1.651 1.229-2.477 1.843-.83.422-1.623.919-2.486 1.264-4.885 1.954-10.373.694-15.272-.426-6.116-1.635-11.773-4.454-17.262-7.54-14.987-8.372-26.828 12.823-11.84 21.196 7.638 4.247 15.553 8.021 24.093 10.1 5.235 1.047 7.414 1.72 12.82 1.836 6.807.148 13.471-1.092 19.595-4.137 1.96-.975 3.742-2.273 5.613-3.41 4.653-3.908 5.64-4.342 9.463-9.156 5.749-7.238 9.557-15.805 12.696-24.424.718-2.322 1.498-4.627 2.155-6.967 3.4-12.109 5.133-24.602 5.889-37.138.736-12.175 1.349-24.364 1.203-36.567-.066-3.39-.145-6.77-.345-10.155-.036-.572-.063-1.144-.102-1.716zm-251.866 80.339c-.937-4.07-1.419-5.975-2.2-10.135-1.481-7.89-2.523-15.859-3.67-23.802-1.22-8.504-2.252-17.072-4.463-25.392-1.746-5.454-3.886-11.363-11.626-11.896a18.887 18.887 0 00-1.208-.037c-1.301-1.06-2.664-2.043-4.148-2.847-.956-.519-1.977-.906-2.966-1.359-5.263-1.824-10.803-1.784-16.034.189-3.394 1.28-4.475 2.147-7.46 4.01-6.904 4.798-11.872 11.545-15.49 19.061-.865 1.796-1.594 3.654-2.39 5.48-3.796 9.877-6.538 20.267-7.22 30.862-.138 2.001-.099 4.01-.138 6.014.294 8.583 2.175 17.177 6.797 24.525.791 1.258 1.739 2.412 2.608 3.619 1.097 1.1 2.085 2.322 3.29 3.302 4.51 3.67 9.92 5.486 15.773 4.562 5.064-.799 6.553-2.553 10.577-5.402 1.237-1.347 2.575-2.607 3.71-4.04 4.782-6.045 7.859-13.585 10.465-20.983.712 3.66 1.18 5.545 2.132 9.704 1.876 7.395 4.232 14.69 7.678 21.51 1.566 2.637.668 1.294 2.747 3.993 11.143 12.82 29.181-2.634 18.651-15.513-2.484-4.865-3.961-10.184-5.415-15.425zm-46.802-17.84c-1.845 5.516-3.714 11.111-6.469 16.251-.89-2.519-1.286-5.246-1.467-7.894.04-1.314-.027-2.63.04-3.942.428-8.135 2.544-16.115 5.37-23.716 2.124-5.046 4.266-10.307 8.75-13.736l1.259-.888c.126-.125.24-.265.377-.375.138-.108.367-.477.743-.11-.554 2.307-1.09 4.618-1.641 6.923-2.046 9.227-4.142 18.46-6.962 27.487zM635.571 546.35c-.938-4.07-1.42-5.975-2.2-10.135-1.481-7.89-2.523-15.86-3.67-23.802-1.22-8.504-2.252-17.073-4.463-25.393-1.746-5.453-3.886-11.363-11.626-11.896a18.887 18.887 0 00-1.208-.037c-1.301-1.059-2.664-2.042-4.148-2.847-.956-.518-1.977-.905-2.966-1.358-5.263-1.825-10.803-1.785-16.034.188-3.394 1.28-4.475 2.147-7.46 4.01-6.904 4.798-11.872 11.545-15.49 19.062-.865 1.796-1.594 3.653-2.39 5.48-3.796 9.877-6.538 20.266-7.22 30.862-.138 2-.099 4.009-.138 6.014.294 8.583 2.175 17.176 6.797 24.524.791 1.259 1.739 2.413 2.608 3.619 1.096 1.1 2.084 2.322 3.29 3.303 4.51 3.67 9.919 5.485 15.773 4.562 5.064-.8 6.553-2.553 10.577-5.403 1.236-1.347 2.575-2.607 3.71-4.04 4.782-6.044 7.858-13.584 10.465-20.983.711 3.66 1.18 5.545 2.132 9.705 1.876 7.395 4.232 14.69 7.678 21.51 1.566 2.636.667 1.294 2.746 3.993 11.143 12.82 29.182-2.635 18.652-15.514-2.484-4.865-3.962-10.184-5.415-15.424zm-46.802-17.84c-1.845 5.515-3.714 11.11-6.47 16.25-.89-2.519-1.285-5.245-1.466-7.893.04-1.314-.028-2.63.04-3.943.428-8.134 2.543-16.114 5.37-23.716 2.124-5.045 4.266-10.307 8.75-13.736l1.259-.888c.125-.125.24-.264.377-.375.137-.107.367-.477.743-.11-.555 2.307-1.09 4.618-1.642 6.923-2.045 9.227-4.141 18.46-6.961 27.487z"/><path d="M617.296 210.484c-5.856-6.096-2.72-3.055-9.45-9.077-1.918-1.441-3.78-2.96-5.752-4.324-10.995-7.604-23.372-12.888-36.2-16.505-7.09-1.832-9.73-2.627-16.962-4.038a213.32 213.32 0 00-35.338-3.865c-3.043-.04-6.086-.13-9.129-.118-15.387.057-30.763 1.268-46.023 3.18-8.172 1.23-10.665 1.52-18.824 3.094-12.86 2.48-25.581 5.675-38.065 9.636-18.806 5.995-37.408 12.59-55.864 19.589-18.94 7.316-37.792 14.858-56.783 22.045-9.659 3.724-19.271 7.568-28.91 11.345-.375-8.675-.92-17.343-1.725-25.996-.991-9.82-1.987-19.663-4.11-29.317-4.043-16.684-27.638-10.967-23.595 5.718 1.817 8.581 2.673 17.317 3.549 26.032 1.002 10.858 1.583 21.74 1.929 32.632a700.652 700.652 0 01-24.654 7.791c-.344-4.054-.76-8.103-1.35-12.136-1.29-9.706-2.775-19.392-4.808-28.973-1.386-6.221-2.859-12.424-4.086-18.679-.555-2.76-1.231-5.546-1.16-8.38 0-17.168-24.278-17.168-24.278 0-.107 4.44.768 8.811 1.632 13.143 1.26 6.428 2.772 12.8 4.195 19.193 1.872 8.894 3.245 17.882 4.438 26.889a189.296 189.296 0 011.582 15.294c-9.482 2.15-19.085 3.918-28.85 3.762-5.518-.163-11.095-.595-16.27-2.687-2.475-1.219-4.954-2.577-6.72-4.755-.642-.806-.319-.369-.836-1.122-.064-.094-.11-.2-.192-.276-.138-.12-.11.268-.142.177-.066-.15-.03-.316-.054-.472-.458-17.16-24.727-16.513-24.27.648.158 4.391 1.594 8.606 3.855 12.354.521.865 1.121 1.68 1.682 2.52 3.28 4.46 7.556 8.057 12.34 10.815 1.049.605 2.141 1.129 3.211 1.693 6.635 3.009 13.84 4.61 21.093 5.146 1.803.133 3.611.148 5.417.222 10.031.245 19.927-1.189 29.712-3.198a163.923 163.923 0 01-3.223 21.702c-.442 2.025-.978 4.028-1.467 6.041-2.627 9.576-5.987 18.999-10.556 27.833-.842 1.628-1.79 3.198-2.684 4.798-5.033 8.156-10.667 15.982-17.037 23.155-1.248 1.405-2.57 2.741-3.856 4.112-4.697 4.841-9.924 9.194-15.9 12.37-3.657 1.944-4.667 2.189-8.527 3.654-7.588 2.472-15.562 3.848-23.556 3.757-1.474-.017-2.945-.138-4.417-.207-5.264-.483-10.445-1.762-15.28-3.912-2.995-1.33-3.675-1.83-6.47-3.462-3.134-2.089-6.26-4.52-8.033-7.94-.744-1.437-.857-2.409-1.213-3.974a22.158 22.158 0 011.045-10.28c.725-2.078 1.55-3.476 2.57-5.44 2.13-3.437 4.921-6.407 8.153-8.835 1.8-1.352 2.769-1.779 4.736-2.836 2.528-1.135 5.192-2.058 8.003-1.774 1.182.12 2.096.452 3.237.787 4.944 1.582 8.417 3.99 12.027 7.629 2.116 2.438 4.138 5.077 5.159 8.173-.124 16.885 23.872 17.35 24.265.283-.1-2.931-.237-5.425-1.303-8.207-.916-2.43-1.076-3.066-2.295-5.405-2.352-4.511-5.437-8.599-8.934-12.282-1.081-1.025-2.117-2.1-3.242-3.075-5.84-5.067-12.73-8.623-20.146-10.755-4.235-.9-5.447-1.383-9.84-1.402-6.63-.034-12.97 1.934-18.849 4.876-1.449.837-2.94 1.604-4.347 2.511-7.62 4.913-13.87 11.63-18.358 19.493-2.062 4.25-3.053 5.863-4.415 10.473-2.235 7.562-2.431 15.43-.701 23.109 1.68 5.075 1.77 6.343 4.618 10.938 3.896 6.284 9.62 11.108 15.81 15.008 4.133 2.33 5.352 3.17 9.78 5.036 7.327 3.09 15.12 4.921 23.045 5.52 2.036.073 4.071.217 6.108.217 10.772 0 21.489-1.92 31.666-5.407 5.486-2.18 7.016-2.588 12.199-5.455 7.903-4.373 14.906-10.143 21.16-16.629 1.56-1.68 3.163-3.324 4.682-5.044 7.387-8.361 13.911-17.485 19.693-27.016 1.12-2.039 2.302-4.045 3.362-6.116 5.304-10.353 9.214-21.382 12.244-32.594.565-2.366 1.183-4.72 1.697-7.099 2.306-10.677 3.635-21.558 4.041-32.473 8.152-2.302 16.25-4.795 24.304-7.42.023 3.953.037 7.905.037 11.856-.112 22.22-1.109 44.418-1.616 66.629-.256 9.687-.12 19.392 1.056 29.016 2.16 17.031 26.244 13.978 24.085-3.053-1.12-8.415-1.006-16.94-.87-25.41.511-22.402 1.521-44.792 1.623-67.203-.006-6.841-.04-13.685-.125-20.527 12.347-4.753 24.616-9.714 36.961-14.473 18.996-7.188 37.853-14.734 56.799-22.052 18.003-6.82 36.143-13.26 54.487-19.103 11.679-3.71 23.586-6.686 35.62-8.995 7.551-1.45 9.932-1.727 17.502-2.86 14.227-1.752 28.56-2.875 42.903-2.914 2.77-.01 5.541.078 8.312.12a188.599 188.599 0 0131.538 3.512c6.212 1.226 8.88 2.02 14.995 3.614 10.377 2.943 20.372 7.233 29.219 13.458 1.425 1.003 2.758 2.13 4.136 3.196 4.656 4.3 2.484 2.131 6.546 6.474 11.824 12.447 29.426-4.275 17.602-16.72z"/><path d="M424.192 265.635c-1.348-1.376-2.929-2.503-4.393-3.754-4.708-2.717-5.465-3.602-10.806-4.898-7.306-1.773-14.785-.673-21.724 1.932-1.548.737-3.14 1.39-4.644 2.21a47.17 47.17 0 00-3.384 2.052c-6.12-10.436-24.178-6.163-22.25 8.682 1.684 8.681 3.195 17.383 4.445 26.136.096 1.098.222 2.195.413 3.288l.001-.004c.013.067.033.126.047.192 2.22 18.554 3.293 37.22 4.59 55.854.917 14.587 2.112 29.15 4.031 43.64.79 5.077 1.618 10.151 2.647 15.186 3.46 16.815 27.24 11.922 23.78-4.893-.93-4.47-1.632-8.985-2.36-13.49-1.863-13.987-2.983-28.049-3.878-42.129-.082-1.181-.162-2.363-.243-3.545.604-.168 1.34-.37 2.304-.627 1.611-.71 3.27-1.322 4.834-2.131 9.362-4.848 16.88-12.592 23.152-20.921 1.256-1.916 2.598-3.779 3.77-5.748 4.365-7.343 7.71-15.587 8.992-24.065.305-2.02.368-4.069.552-6.103-.206-5.25.032-6.907-1.385-12.023-1.531-5.527-4.474-10.74-8.491-14.841zm-14.397 27.317c-.687 6.455-3.201 12.615-6.6 18.115-.825 1.333-1.765 2.59-2.648 3.886-3.413 4.255-7.23 8.545-11.877 11.544-.765-9.996-1.664-19.98-2.906-29.93-.08-.572-.168-1.143-.25-1.715-.043-2.201.598-3.997 1.668-6.178 2.526-3.886 6.03-5.927 10.204-7.693 2.755-.748 6.096-1.272 8.565.585.327.246.594.562.893.843 2.951 3.274 3.077 6.327 2.951 10.543z"/></g><path fill="#85579F" d="M759.633 229.077c0-38.848-31.493-70.34-70.34-70.34-38.847 0-70.34 31.492-70.34 70.34 0 36.816 28.287 97.42 64.311 103.66-.668 6.624-5.221 11.683-10.71 16.519 0 0 7.246-2.584 9.963-1.351 3.27 1.483 2.36 4.508 8.117 4.115 2.94-.201 4.884-3.445 7.077-3.758 4.028-.576 8.885 1.558 8.885 1.558-7.31-7.741-10.298-12.69-12.192-16.933 36.461-5.355 65.229-66.682 65.229-103.81z"/><path fill="#EBF3DC" d="M632.485 244.423s-8.16-26.622.731-43.181c9.812-18.272 21.568-21.337 26.979-18.465 5.438 2.886 5.18 12.896-7.668 20.176-21.261 12.046-20.042 41.47-20.042 41.47zm46.693-67.983a7.785 7.785 0 11-15.039 4.03 7.785 7.785 0 0115.039-4.03z"/><path fill="#F190BB" d="M808.064 268.409c-24.594-15.68-56.884-9.466-74.016 13.58-14.068 22.618-17.585 70.84 3.504 93.35-4.365 3.12-9.767 6.245-22.363 9.413 0 0 5.577.864 8.86 3.683 1.788 1.536 1.676 5.556 4.199 7.418 4.938 3.644 5.852.411 9.633.951 3.142.449 8.163 6.909 8.163 6.909-2.223-7.703-3.425-15.05.138-21.514 5.198 2.993 11.003 4.648 17.134 5.186 28.037-1.827 50.332-24.948 61.635-42.676 16.406-25.733 8.846-59.894-16.887-76.3z"/><path d="M814.853 343.906s13.315-12.397 13.693-24.67c.417-13.544-5.233-19.119-9.233-19.261-4.02-.143-7.144 5.604-2.252 13.92 8.094 13.761-2.208 30.01-2.208 30.01zm-4.211-53.718a5.086 5.086 0 107.192 7.193 5.086 5.086 0 10-7.192-7.193z" fill="#FFF"/><path fill="#62C5E3" d="M689.56 357.49c0-22.057-17.88-39.937-39.937-39.937s-39.938 17.88-39.938 39.937c0 21.083 16.34 55.887 37.045 58.922-1.076 2.413-2.77 5.226-6.932 9.634 0 0 2.758-1.211 5.045-.885 1.246.178 2.349 2.02 4.018 2.134 3.269.223 2.753-1.494 4.61-2.336 1.542-.7 5.656.767 5.656.767-3.121-2.75-5.71-5.627-6.083-9.396 20.454-3.543 36.516-37.936 36.516-58.84z"/><path d="M620.862 373.033s-7.464-11.925-5.29-21.168c2.4-10.2 7.736-13.234 10.752-12.54 3.031.698 4.215 5.616-1.104 10.85-8.8 8.658-4.358 22.858-4.358 22.858zm13.898-39.283a3.933 3.933 0 11-6.812 3.933 3.933 3.933 0 116.812-3.933z" fill="#DCEFF6"/></svg>